<svg width="1000" height="500" xmlns="http://www.w3.org/2000/svg">
 <!-- Created with Method Draw - http://github.com/duopixel/Method-Draw/ -->

 <g>
  <title>background</title>
  <rect fill="#fff" id="canvas_background" height="502" width="1002" y="-1" x="-1"/>
  <g display="none" overflow="visible" y="0" x="0" height="100%" width="100%" id="canvasGrid">
   <rect fill="url(#gridpattern)" stroke-width="0" y="0" x="0" height="100%" width="100%"/>
  </g>
 </g>
 <g>
  <title>Layer 1</title>
  <linearGradient y2="1.19659" x2="0.792517" y1="0.366775" x1="0.207591" id="svg_17">
   <stop stop-color="#288549" offset="0"/>
   <stop stop-color="#288549" offset="1"/>
  </linearGradient>
  <linearGradient y2="0.500017" x2="0.999909" y1="0.500017" x1="-0.000221" id="svg_16">
   <stop stop-color="#288549" offset="0"/>
   <stop stop-color="#288549" offset="1"/>
  </linearGradient>
  <linearGradient y2="0.128726" x2="0.746235" y1="1.025409" x1="0.396185" id="svg_15">
   <stop stop-color="#288549" offset="0"/>
   <stop stop-color="#288549" offset="1"/>
  </linearGradient>
  <linearGradient y2="0.129511" x2="0.253081" y1="1.025074" x1="0.602544" id="svg_14">
   <stop stop-color="#288549" offset="0"/>
   <stop stop-color="#288549" offset="1"/>
  </linearGradient>
  <linearGradient y2="-0.016218" x2="0.748687" y1="0.839398" x1="0.046148" id="svg_13">
   <stop stop-color="#288549" offset="0"/>
   <stop stop-color="#288549" offset="1"/>
  </linearGradient>
  <linearGradient y2="0.795222" x2="0.858216" y1="0.343631" x1="-0.047011" id="svg_12">
   <stop stop-color="#288549" offset="0"/>
   <stop stop-color="#288549" offset="1"/>
  </linearGradient>
  <g stroke="null" id="svg_61">
   <path stroke="null" id="svg_55" d="m52,36.888271c19.689255,11.634666 12.954188,33.471156 24.046386,48.421119c3.226162,-1.748066 6.457157,-3.496131 9.680903,-5.245185a30.197843,24.696243 0 0 0 8.235775,7.301558l28.630678,-18.071578c-4.610874,-2.72635 -7.242553,-6.21754 -8.951089,-10.065458c-4.668873,-10.492346 -2.492724,-23.628035 -15.075964,-31.06596l-46.566689,8.725505z" fill="#D9E3E8"/>
   <g stroke="null" transform="matrix(1.2083003909684717,0,0,0.9881659274508922,31.750733021973133,48.009954402419055) " id="svg_56" fill="#7D8B91">
    <path stroke="null" id="svg_57" d="m27.79147,-5.946874c0.504,0.736 0.965,1.492 1.391,2.264l27.406,-8.457a22.13,22.13 0 0 0 -1.1,-1.792l-27.697,7.985zm4.231,9.106l26.813,-9.887a36.143,36.143 0 0 0 -0.68,-1.991a220426.5,220426.5 0 0 1 -26.992,9.361c0.312,0.828 0.597,1.667 0.859,2.517zm1.793,7.337l26.408,-11.408a94.214,94.214 0 0 0 -0.443,-2.102l-26.527,10.854c0.2,0.878 0.384,1.765 0.562,2.656z"/>
   </g>
   <path stroke="null" id="svg_58" d="m72.263198,78.549346c1.743577,4.182906 4.225426,8.082209 8.152403,11.42221c2.168899,1.862693 6.499448,1.865657 8.990963,0.269769c2.503598,-1.599841 2.406934,-4.095948 0.408406,-5.817333c-3.672025,-3.122604 -5.991962,-6.770913 -7.623167,-10.683062c-3.308326,1.604781 -6.620278,3.206598 -9.928604,4.808415z" fill="#D9E3E8"/>
   <path stroke="null" id="svg_59" d="m74.887626,76.567085c0.151038,5.311392 1.59979,10.06447 5.526766,13.403483c2.168899,1.862693 6.499448,1.865657 8.990963,0.269769c2.503598,-1.599841 2.406934,-4.095948 0.408406,-5.817333c-3.672025,-3.122604 24.481374,-23.781201 22.853794,-27.692362c-3.310743,1.604781 -25.897502,12.836275 -37.779928,19.836443z" fill="#333" opacity="0.5"/>
   <path stroke="null" id="svg_60" d="m81.266244,71.30609c1.590123,4.626593 3.914893,8.968594 7.992907,12.63469c2.216023,2.019811 2.647386,4.697741 0.146204,6.300546c12.580824,-7.94189 25.161647,-15.881803 37.744888,-23.822704c2.498765,-1.599841 2.780299,-3.880528 1.203467,-5.318309c-2.907171,-2.611723 -4.561334,-5.708635 -5.697136,-9.005156l-41.39033,19.210934z" fill="#B0BDC6"/>
  </g>
  <g stroke="null" id="svg_68">
   <path stroke="null" id="svg_62" d="m26,112.88827c19.68925,11.63467 12.95419,33.47116 24.04639,48.42112c3.22616,-1.74807 6.45715,-3.49613 9.6809,-5.24519a30.19784,24.69624 0 0 0 8.23577,7.30156l28.63068,-18.07158c-4.61087,-2.72635 -7.24255,-6.21754 -8.95109,-10.06545c-4.66887,-10.49235 -2.49272,-23.62804 -15.07596,-31.06596l-46.56669,8.7255z" fill="#D9E3E8"/>
   <g stroke="null" transform="matrix(1.2083003909684717,0,0,0.9881659274508922,31.750733021973133,48.009954402419055) " id="svg_64" fill="#7D8B91">
    <path stroke="null" id="svg_63" d="m6.273642,70.963283c0.504,0.736 0.965,1.492 1.391,2.264l27.406,-8.457a22.13,22.13 0 0 0 -1.1,-1.792l-27.697,7.985zm4.231,9.106l26.813,-9.887a36.143,36.143 0 0 0 -0.68,-1.991a220426.5,220426.5 0 0 1 -26.992,9.361c0.312,0.828 0.597,1.667 0.859,2.517zm1.793,7.337l26.408,-11.408a94.214,94.214 0 0 0 -0.443,-2.102l-26.527,10.854c0.2,0.878 0.384,1.765 0.562,2.656z"/>
   </g>
   <path stroke="null" id="svg_65" d="m46.2632,154.54935c1.74358,4.1829 4.22542,8.08221 8.1524,11.42221c2.1689,1.86269 6.49945,1.86565 8.99096,0.26977c2.5036,-1.59985 2.40694,-4.09595 0.40841,-5.81734c-3.67203,-3.1226 -5.99196,-6.77091 -7.62317,-10.68306c-3.30832,1.60478 -6.62028,3.2066 -9.9286,4.80842z" fill="#D9E3E8"/>
   <path stroke="null" id="svg_66" d="m48.88763,152.56709c0.15103,5.31139 1.59979,10.06447 5.52676,13.40348c2.1689,1.86269 6.49945,1.86566 8.99097,0.26977c2.50359,-1.59984 2.40693,-4.09595 0.4084,-5.81734c-3.67202,-3.1226 24.48137,-23.7812 22.85379,-27.69236c-3.31074,1.60478 -25.8975,12.83628 -37.77992,19.83645z" fill="#333" opacity="0.5"/>
   <path stroke="null" id="svg_67" d="m55.26624,147.30609c1.59013,4.62659 3.9149,8.96859 7.99291,12.63469c2.21602,2.01981 2.64739,4.69774 0.14621,6.30055c12.58082,-7.94189 25.16164,-15.88181 37.74488,-23.82271c2.49877,-1.59984 2.7803,-3.88053 1.20347,-5.31831c-2.90717,-2.61172 -4.56133,-5.70863 -5.69714,-9.00515l-41.39033,19.21093z" fill="#B0BDC6"/>
  </g>
  <g stroke="null" id="svg_75">
   <path stroke="null" id="svg_69" d="m76,178.88827c19.68925,11.63467 12.95419,33.47116 24.04639,48.42112c3.22616,-1.74807 6.45715,-3.49613 9.6809,-5.24519a30.19784,24.69624 0 0 0 8.23577,7.30156l28.63068,-18.07158c-4.61087,-2.72635 -7.24255,-6.21754 -8.95109,-10.06545c-4.66887,-10.49235 -2.49272,-23.62804 -15.07596,-31.06596l-46.56669,8.7255z" fill="#D9E3E8"/>
   <g stroke="null" transform="matrix(1.2083003909684717,0,0,0.9881659274508922,31.750733021973133,48.009954402419055) " id="svg_71" fill="#7D8B91">
    <path stroke="null" id="svg_70" d="m47.65408,137.753683c0.504,0.736 0.965,1.492 1.391,2.264l27.406,-8.457a22.13,22.13 0 0 0 -1.1,-1.792l-27.697,7.985zm4.231,9.106l26.813,-9.887a36.143,36.143 0 0 0 -0.68,-1.991a220426.5,220426.5 0 0 1 -26.992,9.361c0.312,0.828 0.597,1.667 0.859,2.517zm1.793,7.337l26.408,-11.408a94.214,94.214 0 0 0 -0.443,-2.102l-26.527,10.854c0.2,0.878 0.384,1.765 0.562,2.656z"/>
   </g>
   <path stroke="null" id="svg_72" d="m96.2632,220.54935c1.74358,4.1829 4.22542,8.08221 8.1524,11.42221c2.1689,1.86269 6.49945,1.86565 8.99096,0.26977c2.5036,-1.59985 2.40694,-4.09595 0.40841,-5.81734c-3.67203,-3.1226 -5.99196,-6.77091 -7.62317,-10.68306c-3.30832,1.60478 -6.62028,3.2066 -9.9286,4.80842z" fill="#D9E3E8"/>
   <path stroke="null" id="svg_73" d="m98.88763,218.56709c0.15103,5.31139 1.59979,10.06447 5.52676,13.40348c2.1689,1.86269 6.49945,1.86566 8.99097,0.26977c2.50359,-1.59984 2.40693,-4.09595 0.4084,-5.81734c-3.67202,-3.1226 24.48137,-23.7812 22.85379,-27.69236c-3.31074,1.60478 -25.8975,12.83628 -37.77992,19.83645z" fill="#333" opacity="0.5"/>
   <path stroke="null" id="svg_74" d="m105.26624,213.30609c1.59013,4.62659 3.9149,8.96859 7.99291,12.63469c2.21602,2.01981 2.64739,4.69774 0.14621,6.30055c12.58082,-7.94189 25.16164,-15.88181 37.74488,-23.82271c2.49877,-1.59984 2.7803,-3.88053 1.20347,-5.31831c-2.90717,-2.61172 -4.56133,-5.70863 -5.69714,-9.00515l-41.39033,19.21093z" fill="#B0BDC6"/>
  </g>
  <g stroke="null" id="svg_91">
   <path stroke="null" id="svg_79" d="m365.013923,164.998521l-66.429379,10.015402l-39.548542,-20.032304l66.431223,-9.916373l39.546698,19.933276z" fill="#534741"/>
   <path stroke="null" id="svg_80" d="m325.467225,145.065246l-66.431223,10.016902l0,-19.834247l66.431223,-10.016902l0,19.834247z" fill="#3E4347"/>
   <path stroke="null" id="svg_81" d="m365.013923,165.09755l-39.546698,-20.032304l0,-19.834247l39.546698,24.842698l0,15.023853z" fill="#D0D0D0"/>
   <path stroke="null" id="svg_82" d="m331.798312,144.095965l-66.427535,10.013902l0,-19.834247l33.213767,-5.00545l0,2.825319l33.213767,-4.850906l0,16.851383z" fill="#ED4C5C"/>
   <path stroke="null" id="svg_83" d="m341.68683,148.699299l-66.429379,10.013902l0,-19.834247l33.215611,-5.006951l0,3.426993l33.213767,-5.174999l0,16.575303z" fill="#FF8736"/>
   <path stroke="null" id="svg_84" d="m351.573505,153.81278l-66.431223,10.015402l0,-19.834247l33.217456,-5.006951l0,3.024876l33.213767,-4.774383l0,16.575303z" fill="#83BF4F"/>
   <path stroke="null" id="svg_85" d="m361.460179,158.92026l-66.429379,10.016902l0,-19.834247l33.215611,-5.006951l0,3.953646l33.213767,-5.701652l0,16.572302z" fill="#FFCE31"/>
   <path stroke="null" id="svg_86" d="m298.584544,175.013923l-39.548542,-20.032304l0,-19.832747l39.548542,24.941727l0,14.923324z" fill="#D0D0D0"/>
   <path stroke="null" id="svg_87" d="m365.013923,164.998521l-66.429379,10.015402l0,-14.923324l66.429379,-10.016902l0,14.924824zm-51.598445,-45.755758l-66.429379,9.916373l0,-40.256664l66.429379,-9.916373l0,40.256664z" fill="#3E4347"/>
   <path stroke="null" id="svg_88" d="m313.415478,119.242764l-66.429379,9.916373l12.049903,6.088764l66.431223,-10.016902l-12.051747,-5.988235z" fill="#94989B"/>
   <path stroke="null" id="svg_89" d="m246.986099,88.902473l6.024952,2.994868l6.024952,43.251532l-12.049903,-5.989736l0,-40.256664zm66.429379,-9.916373l6.024952,2.994868l6.026796,43.250032l-12.051747,-5.988235l0,-40.256664z" fill="#D0D0D0"/>
   <path stroke="null" id="svg_90" d="m313.415478,78.986099l-66.429379,9.916373l6.024952,2.994868l66.429379,-9.916373l-6.024952,-2.994868z" fill="#94989B"/>
  </g>
  <g stroke="null" id="svg_130">
   <path stroke="null" id="svg_124" d="m816.986099,98.986099c22.716396,19.184159 8.792723,52.842533 31.510432,72.027818c16.712345,-9.39963 35.805041,-18.736236 52.517386,-28.135866c-10.046576,-8.484652 -10.892106,-20.666357 -13.129347,-31.51217c-10.423388,-3.40444 -21.794715,-7.822896 -38.075105,-12.379781l-32.823367,0z" fill="#D9E3E8"/>
   <g stroke="null" transform="matrix(1.3129346611046258,0,0,1.1254346560195057,78.23735487298501,29.454458645701962) " id="svg_125" fill="#7D8B91">
    <path stroke="null" id="svg_126" d="m575.711846,70.798031c0.418,0.813 0.8,1.641 1.146,2.48l16.229,-2.962a28.51,28.51 0 0 0 -0.995,-2.157l-16.38,2.639zm3.348,9.785l15.941,-3.916a43.27,43.27 0 0 0 -0.556,-2.313l-16.025,3.568c0.237,0.88 0.449,1.766 0.64,2.661zm1.197,7.659l31.571,-9.834a76.775,76.775 0 0 0 -0.259,-2.04l-31.663,9.113c0.129,0.917 0.243,1.837 0.351,2.761z"/>
   </g>
   <path stroke="null" id="svg_127" d="m849.809466,98.986099c6.372985,5.384079 3.833769,20.128399 5.251739,27.010432c9.250938,-2.089932 23.572429,-12.541844 32.823367,-14.630651c-10.423388,-3.40444 -21.794715,-7.822896 -38.075105,-12.379781z" fill="#333" opacity="0.5"/>
   <path stroke="null" id="svg_128" d="m846.01771,156.747908c0.464779,0.943114 0.97551,1.872723 1.536134,2.785451l19.74785,-9.55494a37.085152,31.789027 0 0 1 -1.335255,-2.419685l-19.948729,9.189174z" fill="#7D8B91"/>
   <path stroke="null" id="svg_129" d="m849.809466,98.986099c6.372985,5.384079 8.665369,11.89697 10.083338,18.779003c9.250938,-2.089932 18.740829,-4.310415 27.991767,-6.399221c-10.423388,-3.40444 -21.794715,-7.822896 -38.075105,-12.379781z" fill="#D9E3E8"/>
  </g>
  <g transform="rotate(35 152.99999999999994,95.99996185302734) " stroke="null" id="svg_152">
   <path stroke="null" id="svg_136" fill="#aa71d6" d="m163.128608,75.607175c-0.803992,-0.843211 -2.142103,-0.843211 -2.974207,0c-0.803992,0.814724 -0.803992,2.170698 0,2.983523l15.080933,15.282246l-49.765019,0c-1.160072,0.001899 -2.082132,0.936268 -2.082132,2.111825c0,1.175557 0.92206,2.140312 2.082132,2.140312l49.765019,0l-15.080933,15.253759c-0.803992,0.843211 -0.803992,2.201084 0,3.013909c0.832103,0.843211 2.172089,0.843211 2.974207,0l18.651106,-18.900076c0.832103,-0.814724 0.832103,-2.170698 0,-2.983523l-18.651106,-18.901976z"/>
   <g stroke="null" transform="matrix(1.8741062965642925,0,0,1.8991234335485263,156.84959772842168,127.3340089095932) " id="svg_137"/>
   <g stroke="null" transform="matrix(1.8741062965642925,0,0,1.8991234335485263,156.84959772842168,127.3340089095932) " id="svg_138"/>
   <g stroke="null" transform="matrix(1.8741062965642925,0,0,1.8991234335485263,156.84959772842168,127.3340089095932) " id="svg_139"/>
   <g stroke="null" transform="matrix(1.8741062965642925,0,0,1.8991234335485263,156.84959772842168,127.3340089095932) " id="svg_140"/>
   <g stroke="null" transform="matrix(1.8741062965642925,0,0,1.8991234335485263,156.84959772842168,127.3340089095932) " id="svg_141"/>
   <g stroke="null" transform="matrix(1.8741062965642925,0,0,1.8991234335485263,156.84959772842168,127.3340089095932) " id="svg_142"/>
   <g stroke="null" transform="matrix(1.8741062965642925,0,0,1.8991234335485263,156.84959772842168,127.3340089095932) " id="svg_143"/>
   <g stroke="null" transform="matrix(1.8741062965642925,0,0,1.8991234335485263,156.84959772842168,127.3340089095932) " id="svg_144"/>
   <g stroke="null" transform="matrix(1.8741062965642925,0,0,1.8991234335485263,156.84959772842168,127.3340089095932) " id="svg_145"/>
   <g stroke="null" transform="matrix(1.8741062965642925,0,0,1.8991234335485263,156.84959772842168,127.3340089095932) " id="svg_146"/>
   <g stroke="null" transform="matrix(1.8741062965642925,0,0,1.8991234335485263,156.84959772842168,127.3340089095932) " id="svg_147"/>
   <g stroke="null" transform="matrix(1.8741062965642925,0,0,1.8991234335485263,156.84959772842168,127.3340089095932) " id="svg_148"/>
   <g stroke="null" transform="matrix(1.8741062965642925,0,0,1.8991234335485263,156.84959772842168,127.3340089095932) " id="svg_149"/>
   <g stroke="null" transform="matrix(1.8741062965642925,0,0,1.8991234335485263,156.84959772842168,127.3340089095932) " id="svg_150"/>
   <g stroke="null" transform="matrix(1.8741062965642925,0,0,1.8991234335485263,156.84959772842168,127.3340089095932) " id="svg_151"/>
  </g>
  <g stroke="null" id="svg_169">
   <path transform="rotate(-35 155.91479492187494,162.05961608886716) " stroke="null" id="svg_153" fill="#aa71d6" d="m166.147417,141.666829c-0.803992,-0.843211 -2.142104,-0.843211 -2.974207,0c-0.803992,0.814724 -0.803992,2.170698 0,2.983523l15.080933,15.282246l-49.765018,0c-1.160072,0.001899 -2.082132,0.936268 -2.082132,2.111825c0,1.175558 0.92206,2.140312 2.082132,2.140312l49.765018,0l-15.080933,15.25376c-0.803992,0.843211 -0.803992,2.201084 0,3.013909c0.832103,0.84321 2.172089,0.84321 2.974207,0l18.651105,-18.900077c0.832104,-0.814724 0.832104,-2.170698 0,-2.983523l-18.651105,-18.901975z"/>
   <g stroke="null" transform="rotate(-35 133.60847473144537,142.95451354980474) matrix(1.8741062965642925,0,0,1.8991234335485263,156.84959772842168,127.3340089095932) " id="svg_154"/>
   <g stroke="null" transform="rotate(-35 133.60847473144537,142.95451354980474) matrix(1.8741062965642925,0,0,1.8991234335485263,156.84959772842168,127.3340089095932) " id="svg_155"/>
   <g stroke="null" transform="rotate(-35 133.60847473144537,142.95451354980474) matrix(1.8741062965642925,0,0,1.8991234335485263,156.84959772842168,127.3340089095932) " id="svg_156"/>
   <g stroke="null" transform="rotate(-35 133.60847473144537,142.95451354980474) matrix(1.8741062965642925,0,0,1.8991234335485263,156.84959772842168,127.3340089095932) " id="svg_157"/>
   <g stroke="null" transform="rotate(-35 133.60847473144537,142.95451354980474) matrix(1.8741062965642925,0,0,1.8991234335485263,156.84959772842168,127.3340089095932) " id="svg_158"/>
   <g stroke="null" transform="rotate(-35 133.60847473144537,142.95451354980474) matrix(1.8741062965642925,0,0,1.8991234335485263,156.84959772842168,127.3340089095932) " id="svg_159"/>
   <g stroke="null" transform="rotate(-35 133.60847473144537,142.95451354980474) matrix(1.8741062965642925,0,0,1.8991234335485263,156.84959772842168,127.3340089095932) " id="svg_160"/>
   <g stroke="null" transform="rotate(-35 133.60847473144537,142.95451354980474) matrix(1.8741062965642925,0,0,1.8991234335485263,156.84959772842168,127.3340089095932) " id="svg_161"/>
   <g stroke="null" transform="rotate(-35 133.60847473144537,142.95451354980474) matrix(1.8741062965642925,0,0,1.8991234335485263,156.84959772842168,127.3340089095932) " id="svg_162"/>
   <g stroke="null" transform="rotate(-35 133.60847473144537,142.95451354980474) matrix(1.8741062965642925,0,0,1.8991234335485263,156.84959772842168,127.3340089095932) " id="svg_163"/>
   <g stroke="null" transform="rotate(-35 133.60847473144537,142.95451354980474) matrix(1.8741062965642925,0,0,1.8991234335485263,156.84959772842168,127.3340089095932) " id="svg_164"/>
   <g stroke="null" transform="rotate(-35 133.60847473144537,142.95451354980474) matrix(1.8741062965642925,0,0,1.8991234335485263,156.84959772842168,127.3340089095932) " id="svg_165"/>
   <g stroke="null" transform="rotate(-35 133.60847473144537,142.95451354980474) matrix(1.8741062965642925,0,0,1.8991234335485263,156.84959772842168,127.3340089095932) " id="svg_166"/>
   <g stroke="null" transform="rotate(-35 133.60847473144537,142.95451354980474) matrix(1.8741062965642925,0,0,1.8991234335485263,156.84959772842168,127.3340089095932) " id="svg_167"/>
   <g stroke="null" transform="rotate(-35 133.60847473144537,142.95451354980474) matrix(1.8741062965642925,0,0,1.8991234335485263,156.84959772842168,127.3340089095932) " id="svg_168"/>
  </g>
  <g stroke="null" id="svg_186">
   <path stroke="null" id="svg_170" fill="#aa71d6" d="m134.392239,115.368934c-0.586784,-0.604971 -1.563388,-0.604971 -2.170688,0c-0.586784,0.584533 -0.586784,1.557391 0,2.140561l11.006632,10.964414l-36.320381,0c-0.846664,0.001362 -1.519618,0.671736 -1.519618,1.515152c0,0.843417 0.672954,1.53559 1.519618,1.53559l36.320381,0l-11.006632,10.943977c-0.586784,0.604971 -0.586784,1.579192 0,2.162362c0.6073,0.60497 1.585272,0.60497 2.170688,0l13.612278,-13.560067c0.607301,-0.584533 0.607301,-1.557391 0,-2.140561l-13.612278,-13.561429z"/>
   <g stroke="null" transform="matrix(1.3677932349134616,0,0,1.3625468654783552,142.94665839399153,123.7824794914974) " id="svg_171"/>
   <g stroke="null" transform="matrix(1.3677932349134616,0,0,1.3625468654783552,142.94665839399153,123.7824794914974) " id="svg_172"/>
   <g stroke="null" transform="matrix(1.3677932349134616,0,0,1.3625468654783552,142.94665839399153,123.7824794914974) " id="svg_173"/>
   <g stroke="null" transform="matrix(1.3677932349134616,0,0,1.3625468654783552,142.94665839399153,123.7824794914974) " id="svg_174"/>
   <g stroke="null" transform="matrix(1.3677932349134616,0,0,1.3625468654783552,142.94665839399153,123.7824794914974) " id="svg_175"/>
   <g stroke="null" transform="matrix(1.3677932349134616,0,0,1.3625468654783552,142.94665839399153,123.7824794914974) " id="svg_176"/>
   <g stroke="null" transform="matrix(1.3677932349134616,0,0,1.3625468654783552,142.94665839399153,123.7824794914974) " id="svg_177"/>
   <g stroke="null" transform="matrix(1.3677932349134616,0,0,1.3625468654783552,142.94665839399153,123.7824794914974) " id="svg_178"/>
   <g stroke="null" transform="matrix(1.3677932349134616,0,0,1.3625468654783552,142.94665839399153,123.7824794914974) " id="svg_179"/>
   <g stroke="null" transform="matrix(1.3677932349134616,0,0,1.3625468654783552,142.94665839399153,123.7824794914974) " id="svg_180"/>
   <g stroke="null" transform="matrix(1.3677932349134616,0,0,1.3625468654783552,142.94665839399153,123.7824794914974) " id="svg_181"/>
   <g stroke="null" transform="matrix(1.3677932349134616,0,0,1.3625468654783552,142.94665839399153,123.7824794914974) " id="svg_182"/>
   <g stroke="null" transform="matrix(1.3677932349134616,0,0,1.3625468654783552,142.94665839399153,123.7824794914974) " id="svg_183"/>
   <g stroke="null" transform="matrix(1.3677932349134616,0,0,1.3625468654783552,142.94665839399153,123.7824794914974) " id="svg_184"/>
   <g stroke="null" transform="matrix(1.3677932349134616,0,0,1.3625468654783552,142.94665839399153,123.7824794914974) " id="svg_185"/>
  </g>
  <g stroke="null" id="svg_224">
   <path stroke="null" id="svg_208" fill="#aa71d6" d="m454.392239,117.408641c-0.586783,-0.644678 -1.563388,-0.644678 -2.170688,0c-0.586783,0.622898 -0.586783,1.659609 0,2.281056l11.006632,11.684052l-36.320381,0c-0.846664,0.001451 -1.519618,0.715825 -1.519618,1.614598c0,0.898774 0.672954,1.636377 1.519618,1.636377l36.320381,0l-11.006632,11.662274c-0.586783,0.644678 -0.586783,1.682841 0,2.304286c0.6073,0.644677 1.585273,0.644677 2.170688,0l13.612278,-14.450069c0.607301,-0.622898 0.607301,-1.659609 0,-2.281055l-13.612278,-14.45152z"/>
   <g stroke="null" transform="matrix(1.3677932349134616,0,0,1.4519762831006047,142.94665839399153,124.37440099241365) " id="svg_209"/>
   <g stroke="null" transform="matrix(1.3677932349134616,0,0,1.4519762831006047,142.94665839399153,124.37440099241365) " id="svg_210"/>
   <g stroke="null" transform="matrix(1.3677932349134616,0,0,1.4519762831006047,142.94665839399153,124.37440099241365) " id="svg_211"/>
   <g stroke="null" transform="matrix(1.3677932349134616,0,0,1.4519762831006047,142.94665839399153,124.37440099241365) " id="svg_212"/>
   <g stroke="null" transform="matrix(1.3677932349134616,0,0,1.4519762831006047,142.94665839399153,124.37440099241365) " id="svg_213"/>
   <g stroke="null" transform="matrix(1.3677932349134616,0,0,1.4519762831006047,142.94665839399153,124.37440099241365) " id="svg_214"/>
   <g stroke="null" transform="matrix(1.3677932349134616,0,0,1.4519762831006047,142.94665839399153,124.37440099241365) " id="svg_215"/>
   <g stroke="null" transform="matrix(1.3677932349134616,0,0,1.4519762831006047,142.94665839399153,124.37440099241365) " id="svg_216"/>
   <g stroke="null" transform="matrix(1.3677932349134616,0,0,1.4519762831006047,142.94665839399153,124.37440099241365) " id="svg_217"/>
   <g stroke="null" transform="matrix(1.3677932349134616,0,0,1.4519762831006047,142.94665839399153,124.37440099241365) " id="svg_218"/>
   <g stroke="null" transform="matrix(1.3677932349134616,0,0,1.4519762831006047,142.94665839399153,124.37440099241365) " id="svg_219"/>
   <g stroke="null" transform="matrix(1.3677932349134616,0,0,1.4519762831006047,142.94665839399153,124.37440099241365) " id="svg_220"/>
   <g stroke="null" transform="matrix(1.3677932349134616,0,0,1.4519762831006047,142.94665839399153,124.37440099241365) " id="svg_221"/>
   <g stroke="null" transform="matrix(1.3677932349134616,0,0,1.4519762831006047,142.94665839399153,124.37440099241365) " id="svg_222"/>
   <g stroke="null" transform="matrix(1.3677932349134616,0,0,1.4519762831006047,142.94665839399153,124.37440099241365) " id="svg_223"/>
  </g>
  <g stroke="null" id="svg_241">
   <path stroke="null" id="svg_225" fill="#aa71d6" d="m728.392239,119.408641c-0.586783,-0.644678 -1.563388,-0.644678 -2.170688,0c-0.586783,0.622898 -0.586783,1.659609 0,2.281055l11.006632,11.684053l-36.320381,0c-0.846664,0.001451 -1.519618,0.715825 -1.519618,1.614597c0,0.898774 0.672954,1.636377 1.519618,1.636377l36.320381,0l-11.006632,11.662274c-0.586783,0.644678 -0.586783,1.682841 0,2.304287c0.6073,0.644677 1.585273,0.644677 2.170688,0l13.612278,-14.450069c0.607301,-0.622898 0.607301,-1.659608 0,-2.281054l-13.612278,-14.45152z"/>
   <g stroke="null" transform="matrix(1.3677932349134616,0,0,1.4519762831006047,142.94665839399158,124.37440099241365) " id="svg_226"/>
   <g stroke="null" transform="matrix(1.3677932349134616,0,0,1.4519762831006047,142.94665839399158,124.37440099241365) " id="svg_227"/>
   <g stroke="null" transform="matrix(1.3677932349134616,0,0,1.4519762831006047,142.94665839399158,124.37440099241365) " id="svg_228"/>
   <g stroke="null" transform="matrix(1.3677932349134616,0,0,1.4519762831006047,142.94665839399158,124.37440099241365) " id="svg_229"/>
   <g stroke="null" transform="matrix(1.3677932349134616,0,0,1.4519762831006047,142.94665839399158,124.37440099241365) " id="svg_230"/>
   <g stroke="null" transform="matrix(1.3677932349134616,0,0,1.4519762831006047,142.94665839399158,124.37440099241365) " id="svg_231"/>
   <g stroke="null" transform="matrix(1.3677932349134616,0,0,1.4519762831006047,142.94665839399158,124.37440099241365) " id="svg_232"/>
   <g stroke="null" transform="matrix(1.3677932349134616,0,0,1.4519762831006047,142.94665839399158,124.37440099241365) " id="svg_233"/>
   <g stroke="null" transform="matrix(1.3677932349134616,0,0,1.4519762831006047,142.94665839399158,124.37440099241365) " id="svg_234"/>
   <g stroke="null" transform="matrix(1.3677932349134616,0,0,1.4519762831006047,142.94665839399158,124.37440099241365) " id="svg_235"/>
   <g stroke="null" transform="matrix(1.3677932349134616,0,0,1.4519762831006047,142.94665839399158,124.37440099241365) " id="svg_236"/>
   <g stroke="null" transform="matrix(1.3677932349134616,0,0,1.4519762831006047,142.94665839399158,124.37440099241365) " id="svg_237"/>
   <g stroke="null" transform="matrix(1.3677932349134616,0,0,1.4519762831006047,142.94665839399158,124.37440099241365) " id="svg_238"/>
   <g stroke="null" transform="matrix(1.3677932349134616,0,0,1.4519762831006047,142.94665839399158,124.37440099241365) " id="svg_239"/>
   <g stroke="null" transform="matrix(1.3677932349134616,0,0,1.4519762831006047,142.94665839399158,124.37440099241365) " id="svg_240"/>
  </g>
  <text stroke="null" font-weight="bold" xml:space="preserve" text-anchor="start" font-family="Helvetica, Arial, sans-serif" font-size="18" id="svg_271" y="275" x="24" fill-opacity="null" stroke-opacity="null" stroke-width="0" fill="#000000">Write .mcss files</text>
  <g stroke="null" id="svg_284">
   <path stroke="null" id="svg_280" d="m566.849463,100.063589c0.844688,0.187152 1.251835,1.029336 0.903081,1.869921l-2.532466,6.111233c-0.347955,0.840585 -1.230238,1.150105 -1.959742,0.683824l-5.420885,-3.446316c-0.729504,-0.464681 -1.043062,-1.532407 -0.694308,-2.372192l1.265433,-3.056017c0.348754,-0.838985 1.324625,-1.374048 2.169314,-1.184496l6.269574,1.394043zm-3.589927,13.207814c0.730303,-0.46548 1.612587,-0.15676 1.961341,0.683025l2.531667,6.112833c0.347954,0.840585 -0.058393,1.682769 -0.903081,1.870721l-6.269574,1.394043c-0.845488,0.187952 -1.82056,-0.346311 -2.169314,-1.184496l-1.265433,-3.056017c-0.348754,-0.841385 -0.035196,-1.909111 0.694308,-2.372992l5.420086,-3.447116zm6.801503,11.876156c0.187975,-0.844584 1.029464,-1.25008 1.870154,-0.902969l6.113594,2.531351c0.840689,0.34951 1.148649,1.230085 0.68391,1.961098l-3.448346,5.418611c-0.464739,0.730213 -1.530998,1.042933 -2.371687,0.695022l-3.055597,-1.266875c-0.839889,-0.347111 -1.375819,-1.323661 -1.186244,-2.167444l1.394216,-6.268793zm13.209459,3.590279c-0.463939,-0.729413 -0.155979,-1.612387 0.68391,-1.961097l6.113594,-2.531351c0.840689,-0.347911 1.682178,0.059185 1.870154,0.902968l1.394216,6.269593c0.187176,0.843784 -0.345554,1.820334 -1.185444,2.169044l-3.056397,1.265276c-0.840689,0.347911 -1.908548,0.035191 -2.372487,-0.695022l-3.447546,-5.419411zm11.877635,-6.800657c-0.843889,-0.187152 -1.250235,-1.030136 -0.902281,-1.87072l2.531667,-6.112833c0.349554,-0.839784 1.231038,-1.146906 1.961342,-0.683024l5.420085,3.447916c0.728705,0.462281 1.043063,1.530008 0.693509,2.371392l-1.265433,3.056017c-0.347955,0.838984 -1.324626,1.373248 -2.169315,1.184496l-6.269573,-1.393243zm3.590727,-13.207014c-0.729504,0.464681 -1.611788,0.15676 -1.960542,-0.683825l-2.531666,-6.112833c-0.348754,-0.840585 0.058393,-1.681169 0.902281,-1.869921l6.270374,-1.394043c0.844688,-0.187152 1.82136,0.345511 2.169314,1.186096l1.265433,3.056817c0.349554,0.838984 0.035196,1.906711 -0.693508,2.370592l-5.421685,3.447116zm-6.800704,-11.877755c-0.187176,0.845383 -1.029464,1.250879 -1.870154,0.903768l-6.113594,-2.532151c-0.840689,-0.34871 -1.147849,-1.230084 -0.68391,-1.961097l3.448346,-5.418611c0.463938,-0.731013 1.531798,-1.044532 2.372487,-0.694222l3.056397,1.265276c0.83989,0.347111 1.372619,1.32366 1.184644,2.167444l-1.394216,6.269593zm-13.209459,-3.58948c0.463939,0.731013 0.156779,1.612387 -0.68391,1.961097l-6.113594,2.532151c-0.839889,0.347111 -1.681379,-0.059985 -1.870154,-0.903768l-1.393416,-6.267993c-0.187976,-0.845383 0.345554,-1.821933 1.185444,-2.169044l3.056397,-1.266875c0.840689,-0.348711 1.906949,-0.035191 2.370887,0.695822l3.448346,5.418611z" fill="#3E4347"/>
   <path stroke="null" id="svg_281" d="m581.000397,90.755575c-11.182526,0 -20.247731,9.064876 -20.247731,20.24441c0,11.179534 9.065205,20.24441 20.247731,20.24441c11.181726,0 20.247732,-9.064876 20.247732,-20.24441c-0.0008,-11.179534 -9.066006,-20.24441 -20.247732,-20.24441zm0,32.991543c-7.040672,0 -12.74872,-5.707337 -12.74872,-12.746333c0,-7.039796 5.708048,-12.747133 12.74872,-12.747133c7.039073,0 12.74872,5.707337 12.74872,12.747133c-0.0008,7.038996 -5.709647,12.746333 -12.74872,12.746333z" fill="#3E4347"/>
   <path stroke="null" id="svg_282" d="m581.000397,95.254422c-8.697254,0 -15.748325,7.049393 -15.748325,15.746364c0,8.696171 7.050271,15.745564 15.748325,15.745564s15.747525,-7.050193 15.747525,-15.746364s-7.050271,-15.745564 -15.747525,-15.745564zm0,21.744026a5.999209,5.998462 0 1 1 0,-11.996925a5.999209,5.998462 0 0 1 0,11.996925z" fill="#94989B"/>
   <path stroke="null" id="svg_283" d="m581.000397,99.003061c-6.626327,0 -11.998418,5.371423 -11.998418,11.996924s5.372092,11.996925 11.998418,11.996925c6.625527,0 11.998419,-5.371423 11.998419,-11.996925s-5.372892,-11.996924 -11.998419,-11.996924zm0,17.995387a5.999209,5.998462 0 1 1 0,-11.996925a5.999209,5.998462 0 0 1 0,11.996925z" fill="#3E4347"/>
  </g>
  <g stroke="null" id="svg_294">
   <path stroke="null" id="svg_290" d="m525.849463,129.063589c0.844688,0.187152 1.251835,1.029337 0.90308,1.869921l-2.532466,6.111234c-0.347954,0.840584 -1.230238,1.150105 -1.959742,0.683824l-5.420885,-3.446316c-0.729504,-0.464681 -1.043063,-1.532408 -0.694308,-2.372192l1.265433,-3.056017c0.348754,-0.838985 1.324625,-1.374048 2.169314,-1.184496l6.269574,1.394042zm-3.589927,13.207814c0.730303,-0.46548 1.612587,-0.156759 1.961341,0.683025l2.531666,6.112833c0.347954,0.840585 -0.058392,1.682769 -0.90308,1.870721l-6.269574,1.394043c-0.845489,0.187952 -1.82056,-0.346312 -2.169314,-1.184497l-1.265433,-3.056016c-0.348755,-0.841385 -0.035196,-1.909111 0.694308,-2.372992l5.420086,-3.447117zm6.801503,11.876156c0.187975,-0.844584 1.029464,-1.250079 1.870154,-0.902969l6.113594,2.531352c0.840689,0.34951 1.148648,1.230084 0.68391,1.961097l-3.448346,5.418611c-0.464738,0.730213 -1.530998,1.042933 -2.371687,0.695022l-3.055597,-1.266875c-0.83989,-0.347111 -1.375819,-1.323661 -1.186244,-2.167445l1.394216,-6.268793zm13.209459,3.59028c-0.463939,-0.729413 -0.155979,-1.612387 0.68391,-1.961097l6.113594,-2.531352c0.84069,-0.34791 1.682178,0.059185 1.870154,0.902969l1.394216,6.269593c0.187176,0.843784 -0.345554,1.820333 -1.185443,2.169043l-3.056398,1.265276c-0.840689,0.347911 -1.908548,0.035192 -2.372487,-0.695021l-3.447546,-5.419411zm11.877635,-6.800657c-0.843889,-0.187152 -1.250235,-1.030136 -0.902281,-1.87072l2.531666,-6.112834c0.349554,-0.839784 1.231038,-1.146905 1.961342,-0.683024l5.420085,3.447916c0.728705,0.462281 1.043063,1.530008 0.693509,2.371392l-1.265433,3.056017c-0.347955,0.838984 -1.324626,1.373247 -2.169315,1.184496l-6.269573,-1.393243zm3.590727,-13.207014c-0.729504,0.464681 -1.611788,0.15676 -1.960542,-0.683825l-2.531666,-6.112833c-0.348754,-0.840584 0.058392,-1.681169 0.90228,-1.869921l6.270374,-1.394042c0.844689,-0.187152 1.82136,0.345511 2.169314,1.186096l1.265434,3.056816c0.349554,0.838985 0.035195,1.906711 -0.693509,2.370593l-5.421685,3.447116zm-6.800704,-11.877755c-0.187176,0.845383 -1.029464,1.250879 -1.870154,0.903768l-6.113594,-2.532151c-0.840689,-0.34871 -1.147849,-1.230084 -0.68391,-1.961097l3.448346,-5.418611c0.463938,-0.731013 1.531798,-1.044533 2.372487,-0.694223l3.056397,1.265276c0.83989,0.347111 1.372619,1.323661 1.184644,2.167445l-1.394216,6.269593zm-13.209459,-3.58948c0.463939,0.731013 0.156779,1.612387 -0.68391,1.961097l-6.113594,2.532151c-0.83989,0.347111 -1.681379,-0.059985 -1.870154,-0.903768l-1.393416,-6.267994c-0.187976,-0.845383 0.345554,-1.821933 1.185444,-2.169044l3.056397,-1.266875c0.840689,-0.348711 1.906949,-0.035191 2.370887,0.695822l3.448346,5.418611z" fill="#3E4347"/>
   <path stroke="null" id="svg_291" d="m540.000397,119.755575c-11.182526,0 -20.247731,9.064876 -20.247731,20.244411c0,11.179534 9.065205,20.24441 20.247731,20.24441c11.181727,0 20.247732,-9.064876 20.247732,-20.24441c-0.0008,-11.179535 -9.066005,-20.244411 -20.247732,-20.244411zm0,32.991543c-7.040672,0 -12.74872,-5.707337 -12.74872,-12.746332c0,-7.039796 5.708048,-12.747133 12.74872,-12.747133c7.039073,0 12.74872,5.707337 12.74872,12.747133c-0.0008,7.038995 -5.709647,12.746332 -12.74872,12.746332z" fill="#3E4347"/>
   <path stroke="null" id="svg_292" d="m540.000397,124.254422c-8.697253,0 -15.748324,7.049393 -15.748324,15.746364c0,8.69617 7.050271,15.745563 15.748324,15.745563s15.747525,-7.050193 15.747525,-15.746363s-7.050271,-15.745564 -15.747525,-15.745564zm0,21.744026a5.999209,5.998462 0 1 1 0,-11.996924a5.999209,5.998462 0 0 1 0,11.996924z" fill="#94989B"/>
   <path stroke="null" id="svg_293" d="m540.000397,128.003061c-6.626327,0 -11.998418,5.371423 -11.998418,11.996925s5.372091,11.996925 11.998418,11.996925c6.625527,0 11.998419,-5.371424 11.998419,-11.996925s-5.372892,-11.996925 -11.998419,-11.996925zm0,17.995387a5.999209,5.998462 0 1 1 0,-11.996924a5.999209,5.998462 0 0 1 0,11.996924z" fill="#3E4347"/>
  </g>
  <g transform="rotate(15 583.9999999999999,155.99998474121105) " stroke="null" id="svg_299">
   <path stroke="null" id="svg_295" d="m569.849463,145.063589c0.844688,0.187152 1.251835,1.029337 0.90308,1.869921l-2.532466,6.111234c-0.347954,0.840584 -1.230238,1.150105 -1.959742,0.683824l-5.420885,-3.446316c-0.729504,-0.464681 -1.043063,-1.532408 -0.694308,-2.372192l1.265433,-3.056017c0.348754,-0.838985 1.324625,-1.374048 2.169314,-1.184496l6.269574,1.394042zm-3.589927,13.207814c0.730303,-0.46548 1.612587,-0.156759 1.961341,0.683025l2.531666,6.112833c0.347954,0.840585 -0.058392,1.682769 -0.90308,1.870721l-6.269574,1.394043c-0.845489,0.187952 -1.82056,-0.346312 -2.169314,-1.184497l-1.265433,-3.056016c-0.348755,-0.841385 -0.035196,-1.909111 0.694308,-2.372992l5.420086,-3.447117zm6.801503,11.876156c0.187975,-0.844584 1.029464,-1.250079 1.870154,-0.902969l6.113594,2.531352c0.840689,0.34951 1.148648,1.230084 0.68391,1.961097l-3.448346,5.418611c-0.464738,0.730213 -1.530998,1.042933 -2.371687,0.695022l-3.055597,-1.266875c-0.83989,-0.347111 -1.375819,-1.323661 -1.186244,-2.167445l1.394216,-6.268793zm13.209459,3.59028c-0.463939,-0.729413 -0.155979,-1.612387 0.68391,-1.961097l6.113594,-2.531352c0.84069,-0.34791 1.682178,0.059185 1.870154,0.902969l1.394216,6.269593c0.187176,0.843784 -0.345554,1.820333 -1.185443,2.169043l-3.056398,1.265276c-0.840689,0.347911 -1.908548,0.035192 -2.372487,-0.695021l-3.447546,-5.419411zm11.877635,-6.800657c-0.843889,-0.187152 -1.250235,-1.030136 -0.902281,-1.87072l2.531666,-6.112834c0.349554,-0.839784 1.231038,-1.146905 1.961342,-0.683024l5.420085,3.447916c0.728705,0.462281 1.043063,1.530008 0.693509,2.371392l-1.265433,3.056017c-0.347955,0.838984 -1.324626,1.373247 -2.169315,1.184496l-6.269573,-1.393243zm3.590727,-13.207014c-0.729504,0.464681 -1.611788,0.15676 -1.960542,-0.683825l-2.531666,-6.112833c-0.348754,-0.840584 0.058392,-1.681169 0.90228,-1.869921l6.270374,-1.394042c0.844689,-0.187152 1.82136,0.345511 2.169314,1.186096l1.265434,3.056816c0.349554,0.838985 0.035195,1.906711 -0.693509,2.370593l-5.421685,3.447116zm-6.800704,-11.877755c-0.187176,0.845383 -1.029464,1.250879 -1.870154,0.903768l-6.113594,-2.532151c-0.840689,-0.34871 -1.147849,-1.230084 -0.68391,-1.961097l3.448346,-5.418611c0.463938,-0.731013 1.531798,-1.044533 2.372487,-0.694223l3.056397,1.265276c0.83989,0.347111 1.372619,1.323661 1.184644,2.167445l-1.394216,6.269593zm-13.209459,-3.58948c0.463939,0.731013 0.156779,1.612387 -0.68391,1.961097l-6.113594,2.532151c-0.83989,0.347111 -1.681379,-0.059985 -1.870154,-0.903768l-1.393416,-6.267994c-0.187976,-0.845383 0.345554,-1.821933 1.185444,-2.169044l3.056397,-1.266875c0.840689,-0.348711 1.906949,-0.035191 2.370887,0.695822l3.448346,5.418611z" fill="#3E4347"/>
   <path stroke="null" id="svg_296" d="m584.000397,135.755575c-11.182526,0 -20.247731,9.064876 -20.247731,20.244411c0,11.179534 9.065205,20.24441 20.247731,20.24441c11.181727,0 20.247732,-9.064876 20.247732,-20.24441c-0.0008,-11.179535 -9.066005,-20.244411 -20.247732,-20.244411zm0,32.991543c-7.040672,0 -12.74872,-5.707337 -12.74872,-12.746332c0,-7.039796 5.708048,-12.747133 12.74872,-12.747133c7.039073,0 12.74872,5.707337 12.74872,12.747133c-0.0008,7.038995 -5.709647,12.746332 -12.74872,12.746332z" fill="#3E4347"/>
   <path stroke="null" id="svg_297" d="m584.000397,140.254422c-8.697253,0 -15.748324,7.049393 -15.748324,15.746364c0,8.69617 7.050271,15.745563 15.748324,15.745563s15.747525,-7.050193 15.747525,-15.746363s-7.050271,-15.745564 -15.747525,-15.745564zm0,21.744026a5.999209,5.998462 0 1 1 0,-11.996924a5.999209,5.998462 0 0 1 0,11.996924z" fill="#94989B"/>
   <path stroke="null" id="svg_298" d="m584.000397,144.003061c-6.626327,0 -11.998418,5.371423 -11.998418,11.996925s5.372091,11.996925 11.998418,11.996925c6.625527,0 11.998419,-5.371424 11.998419,-11.996925s-5.372892,-11.996925 -11.998419,-11.996925zm0,17.995387a5.999209,5.998462 0 1 1 0,-11.996924a5.999209,5.998462 0 0 1 0,11.996924z" fill="#3E4347"/>
  </g>
  <text stroke="null" xml:space="preserve" text-anchor="start" font-family="Helvetica, Arial, sans-serif" font-size="24" id="svg_377" y="92" x="520.5" stroke-opacity="null" stroke-width="0" fill="#aa71d6">0100101</text>
  <text stroke="null" transform="matrix(1,0,0,1,0,0) " xml:space="preserve" text-anchor="start" font-family="Helvetica, Arial, sans-serif" font-size="24" id="svg_378" y="198" x="520.5" stroke-opacity="null" stroke-width="0" fill="#aa71d6">1011101</text>
  <text stroke="null" font-weight="bold" xml:space="preserve" text-anchor="start" font-family="Helvetica, Arial, sans-serif" font-size="18" id="svg_381" y="275" x="200" fill-opacity="null" stroke-opacity="null" stroke-width="0" fill="#000000">MOTJ CSS automatically</text>
  <text stroke="null" font-weight="bold" xml:space="preserve" text-anchor="start" font-family="Helvetica, Arial, sans-serif" font-size="18" id="svg_383" y="301" x="210" fill-opacity="null" stroke-opacity="null" stroke-width="0" fill="#000000">collect all files in src/</text>
  <text stroke="null" font-weight="bold" xml:space="preserve" text-anchor="start" font-family="Helvetica, Arial, sans-serif" font-size="18" id="svg_384" y="275" x="461" fill-opacity="null" stroke-opacity="null" stroke-width="0" fill="#000000">your code gets compiled</text>
  <text stroke="null" transform="translate(743,259) scale(1) translate(-743,-259) " style="cursor: move; vector-effect: non-scaling-stroke;" font-weight="bold" xml:space="preserve" text-anchor="start" font-family="Helvetica, Arial, sans-serif" font-size="18" id="svg_385" y="275" x="743" fill-opacity="null" stroke-opacity="null" stroke-width="0" fill="#000000">the compiled CSS is now</text>
  <text stroke="null" font-weight="bold" xml:space="preserve" text-anchor="start" font-family="Helvetica, Arial, sans-serif" font-size="18" id="svg_387" y="301" x="801" fill-opacity="null" stroke-opacity="null" stroke-width="0" fill="#000000">ready to use</text>
 </g>
</svg>